<svg width="200" height="200" viewBox="0 0 200 200" fill="none" xmlns="http://www.w3.org/2000/svg">
<g opacity="0.1">
<circle cx="76.6667" cy="105.833" r="4.375" fill="black"/>
<circle cx="76.6667" cy="129.167" r="4.375" fill="black"/>
<circle cx="111.667" cy="129.167" r="4.375" fill="black"/>
<circle cx="88.3333" cy="105.833" r="4.375" fill="black"/>
<circle cx="88.3333" cy="129.167" r="4.375" fill="black"/>
<circle cx="123.333" cy="129.167" r="4.375" fill="black"/>
<circle cx="76.6667" cy="117.5" r="4.375" fill="black"/>
<circle cx="76.6667" cy="140.833" r="4.375" fill="black"/>
<circle cx="111.667" cy="140.833" r="4.375" fill="black"/>
<circle cx="88.3333" cy="117.5" r="4.375" fill="black"/>
<circle cx="88.3333" cy="140.833" r="4.375" fill="black"/>
<circle cx="123.333" cy="140.833" r="4.375" fill="black"/>
<circle cx="111.667" cy="105.833" r="4.375" fill="black"/>
<circle cx="123.333" cy="105.833" r="4.375" fill="black"/>
<circle cx="111.667" cy="117.5" r="4.375" fill="black"/>
<circle cx="123.333" cy="117.5" r="4.375" fill="black"/>
<circle cx="100" cy="94.1666" r="4.375" fill="black"/>
<circle cx="111.667" cy="94.1666" r="4.375" fill="black"/>
<circle cx="88.3333" cy="94.1666" r="4.375" fill="black"/>
<circle cx="65" cy="117.5" r="4.375" fill="black"/>
<circle cx="100" cy="105.833" r="4.375" fill="black"/>
<circle cx="65" cy="129.167" r="4.375" fill="black"/>
<circle cx="76.6667" cy="59.1666" r="4.375" fill="black"/>
<circle cx="88.3333" cy="59.1666" r="4.375" fill="black"/>
<circle cx="76.6667" cy="70.8333" r="4.375" fill="black"/>
<circle cx="88.3333" cy="70.8333" r="4.375" fill="black"/>
<circle cx="111.667" cy="59.1666" r="4.375" fill="black"/>
<circle cx="123.333" cy="59.1666" r="4.375" fill="black"/>
<circle cx="111.667" cy="70.8333" r="4.375" fill="black"/>
<circle cx="123.333" cy="70.8333" r="4.375" fill="black"/>
<circle cx="53.3333" cy="82.5" r="4.375" fill="black"/>
<circle cx="65" cy="82.5" r="4.375" fill="black"/>
<circle cx="53.3333" cy="94.1666" r="4.375" fill="black"/>
<circle cx="65" cy="94.1666" r="4.375" fill="black"/>
<circle cx="135" cy="82.5" r="4.375" fill="black"/>
<circle cx="146.667" cy="82.5" r="4.375" fill="black"/>
<circle cx="135" cy="94.1666" r="4.375" fill="black"/>
<circle cx="146.667" cy="94.1666" r="4.375" fill="black"/>
<circle cx="135" cy="117.5" r="4.375" fill="black"/>
<circle cx="100" cy="117.5" r="4.375" fill="black"/>
<circle cx="135" cy="129.167" r="4.375" fill="black"/>
<circle cx="100" cy="129.167" r="4.375" fill="black"/>
</g>
</svg>
